<svg width="64" height="24" viewBox="0 0 64 24" fill="none" xmlns="http://www.w3.org/2000/svg">
<path d="M5.29782 15.0274C5.55029 15.0274 5.78996 15.0052 6.0155 14.9556C6.24414 14.9059 6.44717 14.8279 6.61843 14.7121C6.78968 14.601 6.93136 14.4486 7.03465 14.2543C7.13793 14.0622 7.18736 13.8126 7.18736 13.5108C7.18736 12.9197 7.01876 12.4998 6.68375 12.245C6.34786 11.9937 5.89986 11.8687 5.34902 11.8687H2.56656V15.0274H5.29782ZM5.15658 10.1447C5.60987 10.1447 5.98505 10.0384 6.28254 9.82279C6.57694 9.6111 6.71994 9.26047 6.71994 8.77959C6.71994 8.51302 6.67227 8.29219 6.57694 8.12101C6.47851 7.94983 6.34786 7.81567 6.18278 7.72203C6.01903 7.62446 5.83409 7.55694 5.61914 7.52079C5.40861 7.47985 5.18747 7.46417 4.96105 7.46417H2.56656V10.1447H5.15658ZM5.48761 5.51019C6.04331 5.51019 6.54516 5.55767 7.00375 5.65567C7.45969 5.75106 7.84899 5.91048 8.17782 6.12914C8.50179 6.34736 8.75514 6.63789 8.93655 7.00377C9.11354 7.36442 9.2027 7.81567 9.2027 8.34968C9.2027 8.92725 9.06985 9.40943 8.80414 9.79491C8.53666 10.18 8.14339 10.4957 7.61815 10.741C8.33363 10.944 8.86328 11.3016 9.21462 11.8094C9.56772 12.3208 9.7403 12.9332 9.7403 13.6506C9.7403 14.2325 9.62731 14.733 9.4022 15.1542C9.17445 15.5806 8.8646 15.9265 8.48281 16.193C8.09793 16.4622 7.65567 16.6595 7.16044 16.788C6.67051 16.9165 6.16204 16.981 5.64121 16.981H0.00744629V5.51019H5.48761Z" fill="#9275F5"/>
<path d="M16.045 10.6256C15.77 10.3255 15.3048 10.163 14.7372 10.163C14.3678 10.163 14.0619 10.2244 13.8174 10.3494C13.5782 10.4727 13.3817 10.6264 13.2321 10.8072C13.0829 10.991 12.981 11.1848 12.9218 11.3922C12.8627 11.5943 12.8274 11.7776 12.8163 11.9397H16.5778C16.5226 11.3578 16.3209 10.9278 16.045 10.6256ZM13.3888 14.9891C13.7348 15.3228 14.2354 15.4909 14.8838 15.4909C15.3498 15.4909 15.7528 15.3746 16.0909 15.1424C16.4259 14.9112 16.6298 14.6633 16.7089 14.4063H18.7445C18.4174 15.406 17.9209 16.1199 17.2434 16.5493C16.5742 16.981 15.7577 17.1962 14.8065 17.1962C14.1436 17.1962 13.5468 17.0899 13.0114 16.8817C12.476 16.6704 12.0285 16.3742 11.652 15.9883C11.2852 15.6007 11.0005 15.1424 10.7975 14.6045C10.5966 14.0692 10.4951 13.4764 10.4951 12.8339C10.4951 12.2128 10.6006 11.6326 10.8058 11.0964C11.0159 10.5585 11.3059 10.0942 11.6873 9.70476C12.07 9.31318 12.5233 9.00436 13.0511 8.77874C13.5795 8.55355 14.1617 8.44073 14.8065 8.44073C15.5185 8.44073 16.1421 8.57576 16.6766 8.85148C17.2094 9.12284 17.6459 9.4909 17.9893 9.95173C18.3322 10.4121 18.5763 10.9383 18.729 11.5281C18.88 12.1174 18.9334 12.7329 18.8897 13.3775H12.8163C12.8163 14.0339 13.0414 14.6555 13.3888 14.9891Z" fill="#9275F5"/>
<path d="M22.173 5.51019V9.83542H22.226C22.5195 9.35411 22.8907 9.00435 23.3471 8.78743C23.8026 8.56878 24.2471 8.46076 24.6801 8.46076C25.2976 8.46076 25.8034 8.5409 26.1984 8.70598C26.5939 8.87411 26.9068 9.10148 27.1359 9.39724C27.3606 9.69168 27.5195 10.051 27.6126 10.4744C27.704 10.8969 27.7512 11.363 27.7512 11.8769V16.981H25.4282V12.2912C25.4282 11.6073 25.3201 11.0934 25.1047 10.7571C24.8889 10.4204 24.5057 10.2514 23.9531 10.2514C23.3281 10.2514 22.8762 10.4383 22.5963 10.8072C22.3112 11.1761 22.173 11.7833 22.173 12.6283V16.981H19.851V5.51019H22.173Z" fill="#9275F5"/>
<path d="M33.9517 13.1227C33.8078 13.1697 33.6485 13.2094 33.4843 13.2438C33.3148 13.2756 33.1378 13.3013 32.9542 13.3239C32.7723 13.3457 32.5852 13.3705 32.4038 13.4028C32.2308 13.4363 32.0578 13.4781 31.8931 13.5326C31.7254 13.5866 31.5784 13.6584 31.4575 13.749C31.3321 13.841 31.2324 13.9559 31.156 14.094C31.0819 14.2325 31.0421 14.4124 31.0421 14.625C31.0421 14.828 31.0819 14.9991 31.156 15.1398C31.2324 15.2792 31.3321 15.3881 31.4632 15.4687C31.5939 15.5493 31.747 15.6059 31.9174 15.6373C32.0904 15.6712 32.2692 15.6839 32.4524 15.6839C32.907 15.6839 33.2574 15.6094 33.5072 15.46C33.7557 15.3097 33.9429 15.1302 34.0599 14.9212C34.179 14.7121 34.251 14.5013 34.2744 14.2887C34.3048 14.0749 34.3185 13.9024 34.3185 13.773V12.9197C34.2183 13.0073 34.1005 13.0748 33.9517 13.1227ZM29.4015 9.89075C29.6368 9.5375 29.94 9.25133 30.309 9.03747C30.678 8.82142 31.0903 8.66941 31.5537 8.57838C32.0154 8.48473 32.4771 8.44073 32.9458 8.44073C33.3673 8.44073 33.7937 8.46948 34.2329 8.52872C34.665 8.58752 35.06 8.70295 35.4184 8.875C35.7764 9.04792 36.0681 9.28444 36.2941 9.59326C36.5232 9.89424 36.6393 10.3019 36.6393 10.8072V15.1359C36.6393 15.5122 36.6622 15.8698 36.7028 16.2122C36.7487 16.5576 36.8675 16.8168 36.9796 16.9867L34.6182 16.981C34.5489 16.8817 34.4915 16.7262 34.4646 16.5907C34.4372 16.4583 34.4183 16.322 34.4077 16.1821C34.04 16.5576 33.6088 16.8216 33.1065 16.9723C32.6082 17.1208 32.1001 17.1962 31.5784 17.1962C31.1785 17.1962 30.806 17.1461 30.4573 17.0494C30.1139 16.9527 29.8089 16.8028 29.549 16.6003C29.2877 16.3938 29.0868 16.1377 28.9403 15.8276C28.7946 15.5157 28.7196 15.1446 28.7196 14.716C28.7196 14.243 28.8057 13.8536 28.9756 13.5487C29.1411 13.2438 29.3561 12.9986 29.6249 12.8169C29.8893 12.634 30.1929 12.4963 30.5368 12.4066C30.8775 12.316 31.2235 12.2411 31.5665 12.1884C31.9147 12.1357 32.2537 12.093 32.5923 12.0599C32.9317 12.0272 33.2256 11.9806 33.4883 11.9153C33.7474 11.8517 33.9548 11.755 34.1071 11.6326C34.2567 11.5098 34.3287 11.3312 34.3185 11.0934C34.3185 10.8477 34.2744 10.6517 34.1945 10.5053C34.1141 10.3612 34.0056 10.2501 33.8727 10.1691C33.7363 10.0881 33.5827 10.0349 33.4057 10.0066C33.2256 9.98092 33.035 9.96654 32.8315 9.96654C32.3791 9.96654 32.0211 10.0659 31.7673 10.2566C31.5065 10.4531 31.3564 10.7763 31.3101 11.2275H28.9911C29.0246 10.6887 29.1588 10.244 29.4015 9.89075Z" fill="#9275F5"/>
<path d="M40.1064 8.67767V9.83542H40.158C40.4506 9.35411 40.828 9.00435 41.2968 8.78743C41.7615 8.56878 42.2431 8.46075 42.7312 8.46075C43.3514 8.46075 43.8603 8.5409 44.2536 8.70598C44.6539 8.87411 44.9651 9.10148 45.1906 9.39723C45.4219 9.69168 45.5808 10.051 45.6735 10.4744C45.767 10.8969 45.8134 11.363 45.8134 11.8769V16.981H43.4895V12.2912C43.4895 11.6073 43.3805 11.0933 43.1638 10.7571C42.944 10.4204 42.5648 10.2043 42.0083 10.2043C41.3793 10.2043 40.9211 10.4382 40.6395 10.8072C40.3562 11.1761 40.2158 11.7833 40.2158 12.6283V16.981H37.9171V8.67767H40.1064Z" fill="#9275F5"/>
<path d="M50.9571 10.163C50.5855 10.163 50.2787 10.244 50.032 10.4121C49.78 10.5798 49.5743 10.7924 49.4172 11.0559C49.2596 11.3177 49.1506 11.6073 49.083 11.9244C49.0199 12.2411 48.9846 12.5547 48.9846 12.8666C48.9846 13.168 49.0199 13.4733 49.083 13.7852C49.1506 14.0953 49.2543 14.3754 49.4008 14.6306C49.5496 14.8807 49.7473 15.0863 49.9971 15.2487C50.2456 15.4103 50.548 15.4909 50.9068 15.4909C51.4634 15.4909 51.8898 15.3376 52.1886 15.034C52.4861 14.7286 52.6701 14.3183 52.7478 13.8044H54.9803C54.8272 14.9059 54.3928 15.7474 53.6782 16.3276C52.961 16.9039 52.0425 17.1962 50.924 17.1962C50.292 17.1962 49.7177 17.0899 49.1881 16.8817C48.6593 16.6704 48.2104 16.3795 47.8406 16.004C47.4707 15.6277 47.1838 15.1803 46.9737 14.6603C46.7684 14.1393 46.6652 13.5674 46.6652 12.9467C46.6652 12.3038 46.7609 11.7049 46.9512 11.1513C47.1405 10.5999 47.4204 10.122 47.7933 9.72132C48.1628 9.31798 48.6147 9.00436 49.1492 8.77874C49.6815 8.55355 50.2898 8.44073 50.9726 8.44073C51.4722 8.44073 51.952 8.50738 52.4155 8.63195C52.8754 8.75914 53.2889 8.95558 53.6518 9.2191C54.0155 9.48088 54.3134 9.80712 54.5416 10.1961C54.7671 10.5851 54.896 11.0511 54.9318 11.5838H52.6648C52.5148 10.636 51.9454 10.163 50.9571 10.163Z" fill="#9275F5"/>
<path d="M12.3435 6.27985H17.0552V7.4119H12.3435V6.27985Z" fill="#9275F5"/>
<path d="M61.1412 10.6256C60.8627 10.3255 60.3939 10.163 59.8334 10.163C59.4644 10.163 59.1576 10.2244 58.9087 10.3494C58.669 10.4727 58.4501 10.6264 58.3031 10.8072C58.1561 10.991 58.0506 11.1848 57.9893 11.3922C57.9345 11.5943 57.8961 11.7776 57.886 11.9397H61.6757C61.6139 11.3578 61.417 10.9278 61.1412 10.6256ZM58.4563 14.9891C58.8036 15.3228 59.328 15.4909 59.9812 15.4909C60.4464 15.4909 60.8485 15.3746 61.1844 15.1424C61.5203 14.9112 61.7286 14.6633 61.8028 14.4063H63.8384C63.5131 15.406 63.0135 16.1199 62.3404 16.5493C61.6686 16.981 60.8556 17.1962 59.9009 17.1962C59.2362 17.1962 58.6372 17.0899 58.1058 16.8817C57.5713 16.6704 57.1233 16.3742 56.7486 15.9883C56.3778 15.6007 56.0936 15.1424 55.8914 14.6045C55.6906 14.0692 55.5908 13.4764 55.5908 12.8339C55.5908 12.2128 55.6941 11.6326 55.8998 11.0964C56.1081 10.5585 56.4043 10.0942 56.7834 9.70476C57.1679 9.31318 57.6172 9.00436 58.1438 8.77874C58.6725 8.55355 59.2596 8.44073 59.9009 8.44073C60.6119 8.44073 61.2383 8.57576 61.7675 8.85148C62.3015 9.12284 62.7403 9.4909 63.081 9.95173C63.424 10.4121 63.6707 10.9383 63.8221 11.5281C63.9713 12.1174 64.0287 12.7329 63.9859 13.3775H57.886C57.886 14.0339 58.108 14.6555 58.4563 14.9891Z" fill="#9275F5"/>
</svg>
