<svg width="40" height="40" viewBox="0 0 40 40" fill="none" xmlns="http://www.w3.org/2000/svg">
<g clip-path="url(#clip0_244_387)">
<circle cx="20" cy="20" r="20" fill="url(#paint0_linear_244_387)"/>
<path d="M20 0C8.955 0 0 8.95375 0 20C0 31.0462 8.95375 40 20 40C31.0462 40 40 31.0462 40 20C40 8.95375 31.0462 0 20 0ZM20 37.54C10.35 37.54 2.5 29.65 2.5 20C2.5 10.35 10.35 2.5 20 2.5C29.65 2.5 37.5 10.35 37.5 20C37.5 29.65 29.65 37.54 20 37.54ZM27.0712 12.93C26.5837 12.4425 25.7925 12.4425 25.3037 12.93L20.0012 18.2325L14.6987 12.93C14.2112 12.4425 13.4187 12.4425 12.93 12.93C12.4412 13.4175 12.4425 14.21 12.93 14.6975L18.2325 20L12.93 25.3025C12.4425 25.79 12.4425 26.5825 12.93 27.07C13.4175 27.5575 14.21 27.5575 14.6987 27.07L20.0012 21.7675L25.3037 27.07C25.7913 27.5575 26.5825 27.5575 27.0712 27.07C27.56 26.5825 27.5588 25.79 27.0712 25.3025L21.7688 20L27.0712 14.6975C27.56 14.2088 27.56 13.4175 27.0712 12.93Z" fill="white"/>
</g>
<defs>
<linearGradient id="paint0_linear_244_387" x1="20" y1="-3.89882e-10" x2="20.0065" y2="33.8477" gradientUnits="userSpaceOnUse">
<stop stop-color="#D8CBFF"/>
<stop offset="0.545" stop-color="#D8CBFF" stop-opacity="0.6"/>
<stop offset="1" stop-color="#D8CBFF"/>
</linearGradient>
<clipPath id="clip0_244_387">
<rect width="40" height="40" fill="white"/>
</clipPath>
</defs>
</svg>
