<svg width="64" height="24" viewBox="0 0 64 24" fill="none" xmlns="http://www.w3.org/2000/svg">
<path d="M19.5542 9.8045C20.2867 9.8045 20.8804 9.21835 20.8804 8.49532C20.8804 7.77229 20.2867 7.18613 19.5542 7.18613C18.8217 7.18613 18.2279 7.77229 18.2279 8.49532C18.2279 9.21835 18.8217 9.8045 19.5542 9.8045ZM63.3242 14.2775C63.1225 14.1375 62.9667 14.1143 62.8375 14.3863C60.6099 19.1472 56.8562 16.7714 57.2292 16.9805C58.0618 16.6046 60.2516 14.8714 59.9206 12.4784C59.7196 11.0159 58.4476 10.3672 57.0975 10.5995C54.7408 11.0049 53.8737 13.5134 54.3151 15.7344C54.3924 16.1157 54.5304 16.4303 54.6682 16.7384C52.005 18.8757 50.9474 14.8251 50.8274 14.3412C50.8226 14.3153 52.8838 12.6199 53.457 8.57982C54.0578 4.34565 52.6891 3.57477 51.2894 3.59879C48.6994 3.64334 47.9997 8.98348 48.9398 13.4341C48.8612 13.4543 48.4946 13.6547 47.9058 13.6771C47.4819 12.3613 45.6714 11.208 45.1975 11.6523C44.0115 12.7642 45.4851 14.9378 46.5219 15.1083C45.8991 18.8942 42.0038 17.9565 42.7289 13.2134C43.9974 10.8889 44.9622 7.43234 44.7899 5.34566C44.729 4.60683 44.1755 3.61701 42.9236 3.66595C40.5161 3.76003 40.2543 9.10165 40.5367 12.8928C40.5226 12.7995 40.3887 13.3534 39.4021 13.6289C39.1686 12.3505 37.0829 11.0674 36.5918 11.6843C35.6728 12.839 37.2655 14.8976 38.0201 15.0413C37.3973 18.8271 33.502 17.8894 34.2271 13.1462C35.4956 10.8217 36.4603 7.36518 36.2881 5.2785C36.2272 4.53968 35.6737 3.54986 34.4218 3.59879C32.0142 3.69294 31.7525 9.0345 32.0348 12.8257C32.0206 12.7309 31.8835 13.303 30.8566 13.5741C30.8222 11.9155 28.7289 11.1551 28.226 11.6843C27.3298 12.6275 28.4312 14.563 29.4503 15.0413C28.8274 18.8271 24.9322 17.8894 25.6573 13.1462C26.9258 10.8217 27.8905 7.36518 27.7183 5.2785C27.6573 4.53968 27.1039 3.54986 25.852 3.59879C23.4444 3.69294 23.2507 9.30305 23.533 13.0942C22.74 16.4471 20.0807 20.6343 20.4261 12.2465C20.4602 11.6581 20.4975 11.4346 20.2003 11.2144C19.9775 11.0431 19.471 11.1254 19.1942 11.1323C18.8576 11.1456 18.7732 11.34 18.6989 11.6336C18.5256 12.392 18.4946 13.1272 18.4698 14.1303C18.4535 14.5996 18.4154 14.8185 18.2323 15.4583C18.0493 16.0982 17.0061 17.2674 16.4348 17.072C15.6423 16.8029 15.9021 14.5952 16.0507 13.0783C16.1745 11.8794 15.7783 11.3412 14.763 11.1454C14.1686 11.0231 13.8075 11.0419 13.1885 10.8494C12.6032 10.6673 12.4707 9.57456 11.2224 9.93874C10.5393 10.138 10.9783 11.5659 10.8143 12.6243C10.0074 17.8299 8.32848 17.9728 7.54958 15.444C11.0575 6.96591 8.56436 3.62349 7.10518 3.62349C5.58512 3.62349 3.84759 4.65664 4.58334 11.2675C4.22559 11.1645 4.11561 11.109 3.72401 11.109C1.50911 11.109 0 12.876 0 15.0557C0 17.2354 1.50911 19.0024 3.72401 19.0024C5.03157 19.0024 5.94944 18.4156 6.64477 17.5078C7.09834 18.1489 7.65073 19.0123 8.66086 18.9734C11.6717 18.8577 12.5474 12.7628 12.6507 12.4229C12.9726 12.4718 13.2772 12.5645 13.5743 12.6134C14.0696 12.6868 14.1055 12.8803 14.0944 13.3719C13.9632 17.517 14.7383 18.9684 16.4964 18.9684C17.4761 18.9684 18.3493 18.0187 18.9508 17.3394C19.4 18.2545 20.1159 18.9405 21.0762 18.9684C23.4034 19.0254 24.2944 15.3652 24.2132 15.8469C24.1494 16.2248 24.9681 18.9478 27.3639 18.9577C30.3315 18.9699 30.8831 15.7494 30.949 15.2099C30.9572 15.1025 30.9607 15.1138 30.949 15.2099C30.9482 15.2199 30.9474 15.2306 30.9466 15.2426C31.8887 15.0697 32.3749 14.5712 32.3749 14.5712C32.3749 14.5712 33.1314 19.0078 35.9337 18.9577C38.8435 18.9056 39.3923 15.9946 39.4644 15.4268C39.4739 15.2921 39.4795 15.3079 39.4644 15.4268C39.464 15.4324 39.4637 15.4374 39.4633 15.4435C40.5824 15.0417 40.8767 14.6384 40.8767 14.6384C40.8767 14.6384 41.4781 18.9867 44.4355 19.0248C47.071 19.0587 48.0477 16.3955 48.0535 15.2806C48.498 15.2853 49.3202 15.0205 49.3009 15.0053C49.3009 15.0053 50.2663 18.8071 52.9622 19.0024C54.228 19.094 55.1775 18.2996 55.7187 17.9371C56.9908 18.9537 61.2264 20.2521 63.9008 15.7774C64.2783 15.1352 63.4667 14.3765 63.3242 14.2775ZM3.61711 17.5262C2.32487 17.5262 1.49625 16.3471 1.49625 15.0757C1.49625 13.8043 2.25682 12.6251 3.54907 12.6251C4.13066 12.6251 4.45401 12.6883 4.90696 13.0771C4.98917 13.3964 5.22183 14.1331 5.33516 14.4676C5.48685 14.9152 5.66733 15.2963 5.84939 15.711C5.5893 16.7748 4.73701 17.5262 3.61711 17.5262ZM6.7661 13.1145C6.71241 13.03 6.72356 13.0819 6.66344 13.002C6.4266 12.3662 5.9701 10.9468 5.91723 9.33457C5.85746 7.51096 6.16549 5.3734 7.07351 5.3734C7.68875 5.3734 8.34264 9.70556 6.7661 13.1145ZM24.9613 11.2144C24.8155 10.1322 24.8079 5.30773 25.9816 5.44055C26.6295 5.69958 25.5707 10.2521 24.9613 11.2144ZM33.5311 11.2144C33.3853 10.1322 33.3777 5.30773 34.5514 5.44055C35.1993 5.69958 34.1405 10.2521 33.5311 11.2144ZM42.033 11.2815C41.8871 10.1993 41.8796 5.37488 43.0532 5.5077C43.7012 5.76673 42.6423 10.3193 42.033 11.2815ZM51.419 5.15817C52.492 5.04843 52.4477 9.67256 50.294 12.5918C50.0163 11.5367 49.5904 5.52052 51.419 5.15817ZM55.9291 15.1083C55.5844 13.3904 56.4749 12.262 57.3929 12.1383C57.7137 12.0877 58.1787 12.2928 58.2715 12.6763C58.424 13.3991 58.2494 14.4711 56.1947 15.8314C56.1978 15.843 56.0058 15.4909 55.9291 15.1083Z" fill="#9275F5"/>
</svg>
