<svg width="64" height="24" viewBox="0 0 64 24" fill="none" xmlns="http://www.w3.org/2000/svg">
<path d="M25.2571 12.7218L28.7886 17.0075H26L22.8571 13.0714V17.0075H20.5714V5.72933H22.8571V12.3609L25.76 9.11279H28.6743L25.2571 12.7218ZM16.1143 8.88723C15.0984 8.90223 14.1546 9.40797 13.5886 10.2406V9.11279H11.4286V17.0075H13.7143V13.3196C13.6536 12.7785 13.8234 12.2368 14.1832 11.8241C14.5429 11.4113 15.0602 11.1646 15.6114 11.1429C16.9371 11.1429 17.1429 12.4286 17.1429 13.3196V17.0075H19.4286V12.8233C19.4286 10.3421 18.5943 8.88723 16.16 8.88723H16.1143ZM36.5714 13.2406C36.5802 13.4059 36.5802 13.5716 36.5714 13.7369H30.5714V13.8158C30.7726 14.7873 31.659 15.4708 32.6629 15.4286C33.4419 15.462 34.2011 15.181 34.7657 14.6504L36.2857 15.7782C35.3115 16.7593 33.9622 17.2878 32.5714 17.2331C31.419 17.305 30.2916 16.8805 29.4805 16.0693C28.6695 15.2582 28.2545 14.14 28.3429 13.0038C28.3192 11.8832 28.7686 10.8033 29.5836 10.0226C30.3985 9.2419 31.5057 8.83063 32.64 8.88723C34.7886 8.88723 36.5714 10.3872 36.5714 13.2406ZM34.4457 12.2707C34.4287 11.8192 34.2245 11.3944 33.881 11.0959C33.5374 10.7973 33.0845 10.6512 32.6286 10.6917C31.6236 10.5845 30.7135 11.2831 30.5714 12.2707H34.4457ZM2.28571 5.72933H0V17.0075H6.85714V14.7519H2.28571V5.72933ZM43.4286 5.72933H45.7143V17.0075H43.5543V16.2181C42.9981 16.8943 42.1503 17.2708 41.2686 17.2331C40.1949 17.2059 39.1802 16.7426 38.4641 15.9527C37.748 15.1627 37.394 14.1162 37.4857 13.0602C37.3766 12.0022 37.7229 10.9477 38.4402 10.1541C39.1575 9.36044 40.1796 8.90075 41.2571 8.88723C42.0589 8.85258 42.8412 9.13701 43.4286 9.6767V5.72933ZM43.6 13.0602C43.6727 12.5332 43.5107 12.001 43.1557 11.6009C42.8006 11.2009 42.2875 10.9721 41.7486 10.9737C40.6552 11.052 39.8268 11.9799 39.8857 13.0602C39.8268 14.1404 40.6552 15.0683 41.7486 15.1466C42.2875 15.1482 42.8006 14.9195 43.1557 14.5194C43.5107 14.1193 43.6727 13.5871 43.6 13.0602ZM9.14286 5.50377C8.38033 5.51448 7.75624 6.10572 7.71429 6.85715C7.71429 7.63575 8.35388 8.26693 9.14286 8.26693C9.93184 8.26693 10.5714 7.63575 10.5714 6.85715C10.5295 6.10572 9.90539 5.51448 9.14286 5.50377ZM8 17.0075H10.2857V9.11279H8V17.0075ZM64 4.60151V18.1353C64 18.7582 63.4883 19.2632 62.8571 19.2632H49.1429C48.5117 19.2632 48 18.7582 48 18.1353V4.60151C48 3.97864 48.5117 3.47369 49.1429 3.47369H62.8571C63.4883 3.47369 64 3.97864 64 4.60151ZM52.5714 9.11279H50.2857V17.0075H52.5714V9.11279ZM52.8571 6.85715C52.8571 6.07856 52.2175 5.44738 51.4286 5.44738C50.6396 5.44738 50 6.07856 50 6.85715C50 7.63575 50.6396 8.26693 51.4286 8.26693C52.2175 8.26693 52.8571 7.63575 52.8571 6.85715ZM61.7143 12.8233C61.7143 10.3421 60.88 8.88723 58.4457 8.88723C57.4136 8.88735 56.4494 9.39484 55.8743 10.2406V9.11279H53.7143V17.0075H56V13.3196C55.9393 12.7785 56.1091 12.2368 56.4689 11.8241C56.8286 11.4113 57.3459 11.1646 57.8971 11.1429C59.2229 11.1429 59.4286 12.4286 59.4286 13.3196V17.0075H61.7143V12.8233Z" fill="#9275F5"/>
</svg>
